# xmcd
#
# Track frame offsets: 
#        150
#        18861
#        35947
#        58425
#        77637
#        100973
#        118764
#        140240
#        162890
#        182499
#        199252
#
# Disc length: 2999 seconds
#
# Revision: 0
# Processed by: cddbd v1.5.2PL0 Copyright (c) Steve Scherf et al.
# Submitted via: ExactAudioCopy v0.99pb4
#
DISCID=9f0bb50b
DTITLE=Soilwork - Ride Majestic
DYEAR=2015
DGENRE=Death Metal
TTITLE0=Ride Majestic
TTITLE1=Alight in the Aftermath
TTITLE2=Death in General
TTITLE3=Enemies in Fidelity
TTITLE4=Petrichor by Sulphur
TTITLE5=Phantom
TTITLE6=Ride Majestic (Aspire Angelic)
TTITLE7=Whirl of Pain
TTITLE8=All Along Echoing Paths
TTITLE9=Shining Lights
TTITLE10=Father and Son, Watchning the World Go Down
EXTD=
EXTT0=
EXTT1=
EXTT2=
EXTT3=
EXTT4=
EXTT5=
EXTT6=
EXTT7=
EXTT8=
EXTT9=
EXTT10=
PLAYORDER=
